<svg id="Layer_1" data-name="Layer 1" xmlns="http://www.w3.org/2000/svg" viewBox="0 0 599.8 59.21"><defs><style>.cls-1{fill:#fff;}</style></defs><title>Artboard 1</title><path class="cls-1" d="M14.42,38.88V57.29H0V1.76H23c4.56,0,8.54.81,11.49,2.72,5,3.31,7.81,8.4,7.81,15.76,0,12.08-6.7,18.63-18.78,18.63Zm0-11.64h4.79c5.52,0,8-2.14,8-6.85s-2.65-7-7.88-7H14.42Z"/><path class="cls-1" d="M66.19,1.76v43.3H83.5V57.29H51.75V1.76Z"/><path class="cls-1" d="M128.79,47.6H108.88L105,57.25H89.75L111.11,1.72h15.76l20.92,55.53H132.32Zm-3.9-11-6-17.75-6,17.75Z"/><path class="cls-1" d="M164.05,30.6l-20-28.87h17.23L171.74,16.9,181.83,1.73h17.53L178.49,30.6V57.29H164.05Z"/><path class="cls-1" d="M229.15,26.51H257.8c0,6.11-.59,11.12-2,15C251.6,52.73,242,59.21,229.29,59.21c-17.45,0-29.68-11.86-29.68-29.38S211.54,0,229.82,0c11.56,0,19.88,5.15,25,15.61l-13.7,5.67c-2.43-5.82-6.41-8.76-11.93-8.76-8.4,0-14.43,7.44-14.43,17.31s6,17.45,14.88,17.45c6.63,0,10.46-3.17,11.41-9.57H229.15Z"/><path class="cls-1" d="M300.36,14H283.2v9.28h16.2V35.49H283.2v9.57h17.16V57.29H268.77V1.76h31.59Z"/><path class="cls-1" d="M312.58,57.29V1.76H327l26.58,34v-34H368V57.29H353.6L327,23.34v34Z"/><path class="cls-1" d="M381.49,57.29V1.76h21.38c15.17,0,27.32,13,27.32,27.76s-12,27.77-27.32,27.77Zm14.43-12.22h3.31c10.09,0,15.83-6.55,15.83-15.54S409.06,14,399.23,14h-3.31Z"/><path class="cls-1" d="M472.58,47.6H452.7l-3.83,9.69H433.55L454.88,1.76h15.8l20.92,55.53H476.13Zm-3.9-11-6-17.75-6,17.75Z"/><path class="cls-1" d="M546,57.29H528L514.27,35.93V57.29H499.88V1.76h22.46c12.37,0,18.34,7.81,18.34,17.16,0,8.39-4.12,13.77-12.08,15.61ZM514.27,26.6H517c5.67,0,8.84-2.5,8.84-6.85S522.66,12.9,517,12.9h-2.72Z"/><path class="cls-1" d="M564.48,30.6l-20-28.87h17.23L572.17,16.9,582.27,1.73H599.8L578.88,30.6V57.29H564.48Z"/></svg>